<?xml version="1.0" encoding="UTF-8"?>
<svg xmlns="http://www.w3.org/2000/svg" xmlns:xlink="http://www.w3.org/1999/xlink" width="256pt" height="256pt" viewBox="0 0 256 256" version="1.1">
<g id="surface1">
<path style=" stroke:none;fill-rule:nonzero;fill:rgb(49.019608%,49.803922%,50.588235%);fill-opacity:1;" d="M 127.976562 0.03125 C 93.605469 0.03125 62.03125 13.128906 37.671875 37.484375 C 13.316406 61.839844 0.21875 93.417969 0.21875 127.789062 C 0.21875 162.160156 13.316406 193.734375 37.671875 218.089844 C 58.125 238.542969 83.6875 251.058594 112.617188 254.78125 C 123.976562 256.246094 141.390625 255.503906 153.804688 253.03125 C 198.496094 244.125 236.679688 209.507812 250.0625 165.765625 C 264.101562 119.871094 252.058594 71.261719 218.28125 37.484375 C 193.921875 13.128906 162.347656 0.03125 127.976562 0.03125 Z M 126.8125 10.050781 C 145.300781 9.882812 163.777344 14.070312 180.617188 22.507812 C 203.695312 34.070312 221.695312 52.066406 233.257812 75.148438 C 249.878906 108.324219 249.878906 147.253906 233.257812 180.429688 C 227.457031 192.003906 221.679688 200.144531 212.476562 209.703125 C 193.003906 229.929688 167.222656 242.261719 138.546875 245.0625 C 117.160156 247.152344 95.089844 242.964844 75.335938 233.066406 C 63.757812 227.269531 55.621094 221.492188 46.0625 212.289062 C 9.191406 176.796875 -0.304688 121.058594 22.695312 75.148438 C 36.523438 47.550781 60.273438 26.671875 89.363281 16.546875 C 101.507812 12.320312 114.164062 10.167969 126.8125 10.050781 Z M 126.8125 10.050781 "/>
<path style=" stroke:none;fill-rule:nonzero;fill:rgb(49.019608%,49.803922%,50.588235%);fill-opacity:1;" d="M 142.660156 72 L 67.628906 72 L 67.628906 179.71875 C 67.628906 179.71875 78.367188 180.140625 98.617188 180.140625 L 75.585938 88.730469 Z M 142.660156 72 "/>
<path style=" stroke:none;fill-rule:nonzero;fill:rgb(49.019608%,49.803922%,50.588235%);fill-opacity:1;" d="M 202.652344 149.675781 L 181.390625 65.503906 L 79.632812 91.210938 L 106.019531 195.652344 C 106.019531 195.652344 153.695312 187.113281 169.628906 180.652344 C 174.390625 178.722656 177.457031 176.910156 179.5625 174.949219 C 179.710938 174.894531 179.855469 174.8125 179.972656 174.691406 L 201.953125 152.070312 C 202.113281 151.902344 202.207031 151.695312 202.242188 151.488281 C 202.601562 150.929688 202.757812 150.328125 202.652344 149.675781 Z M 127.320312 97.847656 C 123.367188 97.847656 120.148438 94.628906 120.148438 90.675781 C 120.148438 86.722656 123.367188 83.503906 127.320312 83.503906 C 131.273438 83.503906 134.492188 86.722656 134.492188 90.675781 C 134.492188 94.628906 131.273438 97.847656 127.320312 97.847656 Z M 179.671875 169.082031 C 180.789062 165.761719 183.550781 160.136719 185.339844 155.300781 C 188.628906 154.488281 194.109375 152.226562 197.539062 151.0625 Z M 179.671875 169.082031 "/>
<path style=" stroke:none;fill-rule:nonzero;fill:rgb(49.019608%,49.803922%,50.588235%);fill-opacity:1;" d="M 129.460938 85.886719 C 130.007812 86.4375 130.347656 87.191406 130.347656 88.027344 C 130.347656 89.699219 128.992188 91.054688 127.320312 91.054688 C 125.648438 91.054688 124.292969 89.699219 124.292969 88.027344 C 124.292969 87.191406 124.632812 86.4375 125.179688 85.886719 C 123.351562 86.710938 122.074219 88.546875 122.074219 90.675781 C 122.074219 93.570312 124.425781 95.921875 127.320312 95.921875 C 130.214844 95.921875 132.566406 93.570312 132.566406 90.675781 C 132.566406 88.546875 131.289062 86.710938 129.460938 85.886719 Z M 129.460938 85.886719 "/>
<path style=" stroke:none;fill-rule:nonzero;fill:rgb(49.019608%,49.803922%,50.588235%);fill-opacity:1;" d="M 67.628906 179.71875 L 78.371094 190.453125 "/>
</g>
</svg>
